<svg className="svg" width="50" height="50" viewBox="0 0 50 50" fill="none" xmlns="http://www.w3.org/2000/svg">
<path fill-rule="evenodd" clip-rule="evenodd" d="M50 25C50 38.8071 38.8071 50 25 50C11.1929 50 -2.32298e-05 38.8071 -2.32298e-05 25C-2.32298e-05 11.1929 11.1929 -2.28882e-05 25 -2.28882e-05C38.8071 -2.28882e-05 50 11.1929 50 25ZM27.5908 7.67362H33.1289H33.1316V13.6501C32.8144 13.652 31.8713 13.6513 31.0077 13.6507C30.6044 13.6504 30.2184 13.6501 29.9217 13.6501C29.9176 13.6501 29.9113 13.65 29.903 13.6498C29.6705 13.645 27.8449 13.6075 27.8449 15.4249C27.8568 16.1938 27.8449 18.8416 27.8449 18.8416H33.1532L32.723 24.7938H27.969V42.3262H20.7664V24.9088H16.8467V18.8586H20.6487C20.6487 18.2495 20.6506 17.6636 20.6524 17.0901C20.656 15.979 20.6593 14.9146 20.6487 13.8198C20.6487 9.05588 24.3043 7.67362 27.5908 7.67362Z" fill-opacity="0.15"/>
</svg>
